<?xml version="1.0" encoding="UTF-8" standalone="no"?>
<!-- Created with Inkscape (http://www.inkscape.org/) -->

<svg
   width="123.3409mm"
   height="36.614246mm"
   viewBox="0 0 123.3409 36.614246"
   version="1.1"
   id="svg5"
   inkscape:version="1.1 (c4e8f9ed74, 2021-05-24)"
   sodipodi:docname="logoL.svg"
   xmlns:inkscape="http://www.inkscape.org/namespaces/inkscape"
   xmlns:sodipodi="http://sodipodi.sourceforge.net/DTD/sodipodi-0.dtd"
   xmlns="http://www.w3.org/2000/svg"
   xmlns:svg="http://www.w3.org/2000/svg">
  <sodipodi:namedview
     id="namedview7"
     pagecolor="#ffffff"
     bordercolor="#666666"
     borderopacity="1.0"
     inkscape:pageshadow="2"
     inkscape:pageopacity="0.0"
     inkscape:pagecheckerboard="0"
     inkscape:document-units="mm"
     showgrid="false"
     inkscape:zoom="3.3260208"
     inkscape:cx="197.98433"
     inkscape:cy="215.42259"
     inkscape:window-width="3840"
     inkscape:window-height="2121"
     inkscape:window-x="0"
     inkscape:window-y="0"
     inkscape:window-maximized="0"
     inkscape:current-layer="layer1" />
  <defs
     id="defs2">
    <clipPath
       clipPathUnits="userSpaceOnUse"
       id="clipPath370">
      <path
         d="m 139.552,425.201 c -2.113,-1.432 -4.107,-3.042 -5.957,-4.797 v 0 c -3.72,-3.493 -7.079,-7.349 -10.175,-11.395 v 0 c -6.133,-8.138 -11.38,-16.928 -15.749,-26.124 v 0 c -4.366,-9.193 -8.026,-18.745 -10.582,-28.603 v 0 c -2.654,-9.826 -4.141,-19.969 -4.366,-30.124 v 0 l 0.187,-0.006 c 0.259,5.065 0.853,10.103 1.722,15.089 v 0 c 0.241,1.243 0.426,2.495 0.692,3.733 v 0 l 0.779,3.714 c 0.593,2.46 1.179,4.92 1.884,7.35 v 0 c 1.383,4.866 2.969,9.673 4.745,14.408 v 0 c 1.805,4.725 3.811,9.372 6.01,13.925 v 0 c 2.211,4.546 4.569,9.024 7.139,13.378 v 0 c 2.578,4.349 5.363,8.575 8.372,12.634 v 0 c 2.987,4.073 6.238,7.963 9.844,11.494 v 0 c 1.794,1.775 3.692,3.447 5.733,4.925 v 0 c 2.037,1.471 4.221,2.8 6.638,3.545 v 0 l -0.05,0.18 c -2.487,-0.634 -4.758,-1.901 -6.866,-3.326"
         id="path368" />
    </clipPath>
    <mask
       maskUnits="userSpaceOnUse"
       x="0"
       y="0"
       width="1"
       height="1"
       id="mask388">
      <g
         id="g398">
        <g
           id="g396">
          <g
             id="g394">
            <g
               id="g392">
              <path
                 d="M -32768,32767 H 32767 V -32768 H -32768 Z"
                 style="fill:url(#radialGradient386);stroke:none"
                 id="path390" />
            </g>
          </g>
        </g>
      </g>
    </mask>
    <radialGradient
       fx="0"
       fy="0"
       cx="0"
       cy="0"
       r="1"
       gradientUnits="userSpaceOnUse"
       gradientTransform="matrix(55.674679,0,0,-55.674679,119.59498,376.33984)"
       spreadMethod="pad"
       id="radialGradient386">
      <stop
         style="stop-opacity:0.95001144;stop-color:#ffffff"
         offset="0"
         id="stop380" />
      <stop
         style="stop-opacity:0.95001144;stop-color:#ffffff"
         offset="0.76776968"
         id="stop382" />
      <stop
         style="stop-opacity:0.09999237;stop-color:#ffffff"
         offset="1"
         id="stop384" />
    </radialGradient>
    <radialGradient
       fx="0"
       fy="0"
       cx="0"
       cy="0"
       r="1"
       gradientUnits="userSpaceOnUse"
       gradientTransform="matrix(55.674679,0,0,-55.674679,119.59498,376.33984)"
       spreadMethod="pad"
       id="radialGradient410">
      <stop
         style="stop-opacity:1;stop-color:#ffffff"
         offset="0"
         id="stop404" />
      <stop
         style="stop-opacity:1;stop-color:#ffffff"
         offset="0.76776968"
         id="stop406" />
      <stop
         style="stop-opacity:1;stop-color:#ffffff"
         offset="1"
         id="stop408" />
    </radialGradient>
    <clipPath
       clipPathUnits="userSpaceOnUse"
       id="clipPath320">
      <path
         d="m 146.696,327.756 c 0.093,-6.517 0.929,-13.025 2.415,-19.387 v 0 c 1.523,-6.353 3.741,-12.546 6.584,-18.442 v 0 c 5.702,-11.795 13.976,-22.307 23.881,-30.876 v 0 c 4.981,-4.259 10.369,-8.039 16.074,-11.257 v 0 c 5.706,-3.211 11.726,-5.896 17.996,-7.8 v 0 c 6.258,-1.92 12.736,-3.155 19.27,-3.503 v 0 c 6.528,-0.31 13.119,0.223 19.425,1.899 v 0 l -0.046,0.183 c -6.348,-1.398 -12.879,-1.798 -19.329,-1.29 v 0 c -6.453,0.471 -12.831,1.793 -18.976,3.798 v 0 c -12.297,4.005 -23.712,10.602 -33.481,19.055 v 0 c -9.836,8.384 -17.983,18.742 -23.788,30.298 v 0 c -2.911,5.773 -5.207,11.861 -6.836,18.128 v 0 c -1.673,6.261 -2.627,12.708 -3.001,19.199 v 0 z"
         id="path318" />
    </clipPath>
    <mask
       maskUnits="userSpaceOnUse"
       x="0"
       y="0"
       width="1"
       height="1"
       id="mask338">
      <g
         id="g348">
        <g
           id="g346">
          <g
             id="g344">
            <g
               id="g342">
              <path
                 d="M -32768,32767 H 32767 V -32768 H -32768 Z"
                 style="fill:url(#radialGradient336);stroke:none"
                 id="path340" />
            </g>
          </g>
        </g>
      </g>
    </mask>
    <radialGradient
       fx="0"
       fy="0"
       cx="0"
       cy="0"
       r="1"
       gradientUnits="userSpaceOnUse"
       gradientTransform="matrix(49.379005,0,0,-49.379005,199.51846,282.08405)"
       spreadMethod="pad"
       id="radialGradient336">
      <stop
         style="stop-opacity:0.95001144;stop-color:#ffffff"
         offset="0"
         id="stop330" />
      <stop
         style="stop-opacity:0.95001144;stop-color:#ffffff"
         offset="0.79908746"
         id="stop332" />
      <stop
         style="stop-opacity:0.09999237;stop-color:#ffffff"
         offset="1"
         id="stop334" />
    </radialGradient>
    <radialGradient
       fx="0"
       fy="0"
       cx="0"
       cy="0"
       r="1"
       gradientUnits="userSpaceOnUse"
       gradientTransform="matrix(49.379005,0,0,-49.379005,199.51846,282.08405)"
       spreadMethod="pad"
       id="radialGradient360">
      <stop
         style="stop-opacity:1;stop-color:#ffffff"
         offset="0"
         id="stop354" />
      <stop
         style="stop-opacity:1;stop-color:#ffffff"
         offset="0.79908746"
         id="stop356" />
      <stop
         style="stop-opacity:1;stop-color:#ffffff"
         offset="1"
         id="stop358" />
    </radialGradient>
    <clipPath
       clipPathUnits="userSpaceOnUse"
       id="clipPath270">
      <path
         d="m 308.378,428.336 c -0.177,-6.21 -1.356,-12.333 -2.977,-18.313 v 0 c -1.57,-5.997 -3.534,-11.889 -5.716,-17.693 v 0 c -2.2,-5.798 -4.531,-11.549 -7.082,-17.206 v 0 c -2.536,-5.662 -5.283,-11.229 -8.13,-16.74 v 0 c -2.835,-5.519 -5.822,-10.96 -8.97,-16.307 v 0 c -3.158,-5.341 -6.5,-10.569 -9.969,-15.711 v 0 c -3.486,-5.13 -7.176,-10.123 -11.147,-14.887 v 0 c -3.947,-4.782 -8.212,-9.312 -12.948,-13.338 v 0 l 0.117,-0.146 c 4.954,3.789 9.357,8.255 13.501,12.91 v 0 c 4.113,4.693 7.916,9.648 11.532,14.728 v 0 c 7.226,10.174 13.54,20.961 19.33,32.002 v 0 c 5.706,11.085 10.826,22.487 15.01,34.242 v 0 c 2.067,5.885 3.913,11.853 5.36,17.925 v 0 c 1.39,6.073 2.437,12.29 2.276,18.537 v 0 z"
         id="path268" />
    </clipPath>
    <mask
       maskUnits="userSpaceOnUse"
       x="0"
       y="0"
       width="1"
       height="1"
       id="mask288">
      <g
         id="g298">
        <g
           id="g296">
          <g
             id="g294">
            <g
               id="g292">
              <path
                 d="M -32768,32767 H 32767 V -32768 H -32768 Z"
                 style="fill:url(#radialGradient286);stroke:none"
                 id="path290" />
            </g>
          </g>
        </g>
      </g>
    </mask>
    <radialGradient
       fx="0"
       fy="0"
       cx="0"
       cy="0"
       r="1"
       gradientUnits="userSpaceOnUse"
       gradientTransform="matrix(51.838528,0,0,-51.838528,275.01056,363.16672)"
       spreadMethod="pad"
       id="radialGradient286">
      <stop
         style="stop-opacity:0.95001144;stop-color:#ffffff"
         offset="0"
         id="stop280" />
      <stop
         style="stop-opacity:0.95001144;stop-color:#ffffff"
         offset="0.79908746"
         id="stop282" />
      <stop
         style="stop-opacity:0.09999237;stop-color:#ffffff"
         offset="1"
         id="stop284" />
    </radialGradient>
    <radialGradient
       fx="0"
       fy="0"
       cx="0"
       cy="0"
       r="1"
       gradientUnits="userSpaceOnUse"
       gradientTransform="matrix(51.838528,0,0,-51.838528,275.01056,363.16672)"
       spreadMethod="pad"
       id="radialGradient310">
      <stop
         style="stop-opacity:1;stop-color:#ffffff"
         offset="0"
         id="stop304" />
      <stop
         style="stop-opacity:1;stop-color:#ffffff"
         offset="0.79908746"
         id="stop306" />
      <stop
         style="stop-opacity:1;stop-color:#ffffff"
         offset="1"
         id="stop308" />
    </radialGradient>
    <linearGradient
       x1="0"
       y1="0"
       x2="1"
       y2="0"
       gradientUnits="userSpaceOnUse"
       gradientTransform="matrix(-41.620415,-160.33319,-160.33319,41.620415,279.86148,457.9137)"
       spreadMethod="pad"
       id="linearGradient260">
      <stop
         style="stop-opacity:1;stop-color:#450207"
         offset="0"
         id="stop254" />
      <stop
         style="stop-opacity:1;stop-color:#450207"
         offset="0.09190799"
         id="stop256" />
      <stop
         style="stop-opacity:1;stop-color:#e30613"
         offset="1"
         id="stop258" />
    </linearGradient>
    <linearGradient
       x1="0"
       y1="0"
       x2="1"
       y2="0"
       gradientUnits="userSpaceOnUse"
       gradientTransform="matrix(111.01505,98.282135,98.282135,-111.01505,167.5779,270.94894)"
       spreadMethod="pad"
       id="linearGradient238">
      <stop
         style="stop-opacity:1;stop-color:#0a2536"
         offset="0"
         id="stop232" />
      <stop
         style="stop-opacity:1;stop-color:#0093e9"
         offset="0.47682397"
         id="stop234" />
      <stop
         style="stop-opacity:1;stop-color:#0093e9"
         offset="1"
         id="stop236" />
    </linearGradient>
    <linearGradient
       x1="0"
       y1="0"
       x2="1"
       y2="0"
       gradientUnits="userSpaceOnUse"
       gradientTransform="matrix(137.60242,114.08807,114.08807,-137.60242,178.01009,264.05176)"
       spreadMethod="pad"
       id="linearGradient216">
      <stop
         style="stop-opacity:1;stop-color:#0a2536"
         offset="0"
         id="stop210" />
      <stop
         style="stop-opacity:1;stop-color:#007dc7"
         offset="0.47682397"
         id="stop212" />
      <stop
         style="stop-opacity:1;stop-color:#007dc7"
         offset="1"
         id="stop214" />
    </linearGradient>
    <linearGradient
       x1="0"
       y1="0"
       x2="1"
       y2="0"
       gradientUnits="userSpaceOnUse"
       gradientTransform="matrix(-86.791618,178.84332,178.84332,86.791618,209.81499,227.80688)"
       spreadMethod="pad"
       id="linearGradient194">
      <stop
         style="stop-opacity:1;stop-color:#450207"
         offset="0"
         id="stop188" />
      <stop
         style="stop-opacity:1;stop-color:#450207"
         offset="0.09190799"
         id="stop190" />
      <stop
         style="stop-opacity:1;stop-color:#e30613"
         offset="1"
         id="stop192" />
    </linearGradient>
    <linearGradient
       x1="0"
       y1="0"
       x2="1"
       y2="0"
       gradientUnits="userSpaceOnUse"
       gradientTransform="matrix(-88.106644,261.03238,261.03238,88.106644,190.86198,222.12837)"
       spreadMethod="pad"
       id="linearGradient172">
      <stop
         style="stop-opacity:1;stop-color:#450207"
         offset="0"
         id="stop166" />
      <stop
         style="stop-opacity:1;stop-color:#450207"
         offset="0.09190799"
         id="stop168" />
      <stop
         style="stop-opacity:1;stop-color:#e30613"
         offset="1"
         id="stop170" />
    </linearGradient>
    <linearGradient
       x1="0"
       y1="0"
       x2="1"
       y2="0"
       gradientUnits="userSpaceOnUse"
       gradientTransform="matrix(-20.810207,-114.45614,-114.45614,20.810207,293.17822,460.35626)"
       spreadMethod="pad"
       id="linearGradient150">
      <stop
         style="stop-opacity:1;stop-color:#450207"
         offset="0"
         id="stop144" />
      <stop
         style="stop-opacity:1;stop-color:#450207"
         offset="0.09190799"
         id="stop146" />
      <stop
         style="stop-opacity:1;stop-color:#e30613"
         offset="1"
         id="stop148" />
    </linearGradient>
    <linearGradient
       x1="0"
       y1="0"
       x2="1"
       y2="0"
       gradientUnits="userSpaceOnUse"
       gradientTransform="matrix(35.448833,108.79125,108.79125,-35.448833,84.108902,351.89896)"
       spreadMethod="pad"
       id="linearGradient128">
      <stop
         style="stop-opacity:1;stop-color:#0a2536"
         offset="0"
         id="stop122" />
      <stop
         style="stop-opacity:1;stop-color:#0093e9"
         offset="0.47682397"
         id="stop124" />
      <stop
         style="stop-opacity:1;stop-color:#0093e9"
         offset="1"
         id="stop126" />
    </linearGradient>
    <linearGradient
       x1="0"
       y1="0"
       x2="1"
       y2="0"
       gradientUnits="userSpaceOnUse"
       gradientTransform="matrix(36.263752,109.60616,109.60616,-36.263752,100.8202,344.47388)"
       spreadMethod="pad"
       id="linearGradient106">
      <stop
         style="stop-opacity:1;stop-color:#0a2536"
         offset="0"
         id="stop100" />
      <stop
         style="stop-opacity:1;stop-color:#007dc7"
         offset="0.47682397"
         id="stop102" />
      <stop
         style="stop-opacity:1;stop-color:#007dc7"
         offset="1"
         id="stop104" />
    </linearGradient>
    <clipPath
       clipPathUnits="userSpaceOnUse"
       id="clipPath44">
      <path
         d="m 67.459,224.312 c 0,-19.106 59.572,-34.596 133.056,-34.596 v 0 c 73.485,0 133.056,15.49 133.056,34.596 v 0 c 0,19.107 -59.571,34.596 -133.056,34.596 v 0 c -73.484,0 -133.056,-15.489 -133.056,-34.596"
         id="path42" />
    </clipPath>
    <mask
       maskUnits="userSpaceOnUse"
       x="0"
       y="0"
       width="1"
       height="1"
       id="mask62">
      <g
         id="g72">
        <g
           id="g70">
          <g
             id="g68">
            <g
               id="g66">
              <path
                 d="M -32768,32767 H 32767 V -32768 H -32768 Z"
                 style="fill:url(#radialGradient60);stroke:none"
                 id="path64" />
            </g>
          </g>
        </g>
      </g>
    </mask>
    <radialGradient
       fx="0"
       fy="0"
       cx="0"
       cy="0"
       r="1"
       gradientUnits="userSpaceOnUse"
       gradientTransform="matrix(125.24413,14.427201,3.7511625,-32.564255,198.74039,225.36958)"
       spreadMethod="pad"
       id="radialGradient60">
      <stop
         style="stop-opacity:1;stop-color:#ffffff"
         offset="0"
         id="stop54" />
      <stop
         style="stop-opacity:0;stop-color:#ffffff"
         offset="0.78190974"
         id="stop56" />
      <stop
         style="stop-opacity:0;stop-color:#ffffff"
         offset="1"
         id="stop58" />
    </radialGradient>
    <radialGradient
       fx="0"
       fy="0"
       cx="0"
       cy="0"
       r="1"
       gradientUnits="userSpaceOnUse"
       gradientTransform="matrix(125.24413,14.427201,3.7511625,-32.564255,198.74039,225.36958)"
       spreadMethod="pad"
       id="radialGradient84">
      <stop
         style="stop-opacity:1;stop-color:#161412"
         offset="0"
         id="stop78" />
      <stop
         style="stop-opacity:1;stop-color:#cacaca"
         offset="0.78190974"
         id="stop80" />
      <stop
         style="stop-opacity:1;stop-color:#ffffff"
         offset="1"
         id="stop82" />
    </radialGradient>
    <linearGradient
       x1="0"
       y1="0"
       x2="1"
       y2="0"
       gradientUnits="userSpaceOnUse"
       gradientTransform="matrix(0.0075066,0,0,-0.0075066,147.15398,442.1073)"
       spreadMethod="pad"
       id="linearGradient34">
      <stop
         style="stop-opacity:1;stop-color:#49c0f5"
         offset="0"
         id="stop24" />
      <stop
         style="stop-opacity:1;stop-color:#49c0f5"
         offset="0.29673658"
         id="stop26" />
      <stop
         style="stop-opacity:1;stop-color:#ffffff"
         offset="0.505002"
         id="stop28" />
      <stop
         style="stop-opacity:1;stop-color:#49c0f5"
         offset="0.72313102"
         id="stop30" />
      <stop
         style="stop-opacity:1;stop-color:#49c0f5"
         offset="1"
         id="stop32" />
    </linearGradient>
  </defs>
  <g
     inkscape:label="Ebene 1"
     inkscape:groupmode="layer"
     id="layer1"
     transform="translate(-8.2814859,-78.134677)">
    <text
       xml:space="preserve"
       style="font-style:normal;font-variant:normal;font-weight:300;font-stretch:normal;font-size:26.4583px;line-height:1.25;font-family:'Noto Sans';-inkscape-font-specification:'Noto Sans, Light';font-variant-ligatures:normal;font-variant-caps:normal;font-variant-numeric:normal;font-variant-east-asian:normal;letter-spacing:0px;word-spacing:0px;writing-mode:lr-tb;stroke-width:0.264583"
       x="39.388885"
       y="108.39893"
       id="text2830"><tspan
         sodipodi:role="line"
         id="tspan2828"
         style="font-style:normal;font-variant:normal;font-weight:300;font-stretch:normal;font-size:26.4583px;font-family:'Noto Sans';-inkscape-font-specification:'Noto Sans, Light';font-variant-ligatures:normal;font-variant-caps:normal;font-variant-numeric:normal;font-variant-east-asian:normal;stroke-width:0.264583"
         x="39.388885"
         y="108.39893">bermag</tspan></text>
    <g
       id="g1325"
       inkscape:label="logo"
       transform="matrix(0.37946223,0,0,0.37946223,10.309464,34.49379)"
       style="stroke-width:2.63531">
      <g
         id="g12"
         transform="matrix(0.35277777,0,0,-0.35277777,-37.957947,275.42301)"
         style="stroke-width:2.63531">
        <g
           id="g14"
           style="stroke-width:2.63531">
          <g
             id="g20"
             style="stroke-width:2.63531">
            <g
               id="g22"
               style="stroke-width:2.63531">
              <path
                 d="m 147.154,442.107 h 0.008 z"
                 style="fill:url(#linearGradient34);stroke:none;stroke-width:2.63531"
                 id="path36" />
            </g>
          </g>
        </g>
      </g>
      <g
         id="g38"
         transform="matrix(0.28631908,0,0,-0.26681298,-24.631983,256.14008)"
         style="stroke-width:3.36358">
        <g
           id="g40"
           clip-path="url(#clipPath44)"
           style="stroke-width:3.36358">
          <g
             id="g46"
             style="stroke-width:3.36358">
            <g
               id="g48"
               style="stroke-width:3.36358" />
            <g
               id="g74"
               mask="url(#mask62)"
               style="stroke-width:3.36358">
              <g
                 id="g76"
                 style="stroke-width:3.36358">
                <path
                   d="m 67.459,224.312 c 0,-19.106 59.572,-34.596 133.056,-34.596 v 0 c 73.485,0 133.056,15.49 133.056,34.596 v 0 c 0,19.107 -59.571,34.596 -133.056,34.596 v 0 c -73.484,0 -133.056,-15.489 -133.056,-34.596"
                   style="fill:url(#radialGradient84);stroke:none;stroke-width:3.36358"
                   id="path86"
                   inkscape:label="path86" />
              </g>
            </g>
          </g>
        </g>
      </g>
      <g
         id="g88"
         transform="matrix(0.35277777,0,0,-0.35277777,-37.957947,275.42301)"
         style="stroke-width:2.63531">
        <g
           id="g90"
           style="stroke-width:2.63531">
          <g
             id="g96"
             style="stroke-width:2.63531">
            <g
               id="g98"
               style="stroke-width:2.63531">
              <path
                 d="m 93.529,334.965 c 4.519,36.632 29.861,85.117 52.914,93.472 v 0 c -0.203,7.147 -3.183,13.587 -7.897,18.301 v 0 c -1.719,1.719 -3.656,3.198 -5.78,4.4 v 0 C 107.341,427.333 98.904,411.479 93.529,334.965"
                 style="fill:url(#linearGradient106);stroke:none;stroke-width:2.63531"
                 id="path108" />
            </g>
          </g>
        </g>
      </g>
      <g
         id="g110"
         transform="matrix(0.35277777,0,0,-0.35277777,-37.957947,275.42301)"
         style="stroke-width:2.63531">
        <g
           id="g112"
           style="stroke-width:2.63531">
          <g
             id="g118"
             style="stroke-width:2.63531">
            <g
               id="g120"
               style="stroke-width:2.63531">
              <path
                 d="m 92.448,427.641 v -94.53 c 0,-3.018 0.12,-6.005 0.368,-8.955 v 0 c 0,3.445 0.248,7.063 0.713,10.809 v 0 c 5.375,76.514 13.812,92.368 39.237,116.173 v 0 c -3.934,2.236 -8.475,3.512 -13.317,3.512 v 0 c -14.915,0 -27.001,-12.093 -27.001,-27.009"
                 style="fill:url(#linearGradient128);stroke:none;stroke-width:2.63531"
                 id="path130" />
            </g>
          </g>
        </g>
      </g>
      <g
         id="g132"
         transform="matrix(0.35277777,0,0,-0.35277777,-37.999928,275.39761)"
         style="stroke-width:2.63531">
        <g
           id="g134"
           style="stroke-width:2.63531">
          <g
             id="g140"
             style="stroke-width:2.63531">
            <g
               id="g142"
               style="stroke-width:2.63531">
              <path
                 d="m 280.768,416.201 c -0.879,-41.549 -14.315,-94.17 -39.245,-118.206 v 0 c 23.391,16.612 66.974,93.104 66.974,130.269 v 0 0.173 c -0.209,7.146 -3.19,13.587 -7.903,18.3 v 0 c -4.887,4.887 -11.636,7.913 -19.097,7.913 v 0 c 0.005,-0.02 0.055,-1.037 -0.729,-38.449"
                 style="fill:url(#linearGradient150);stroke:none;stroke-width:2.63531"
                 id="path152" />
            </g>
          </g>
        </g>
      </g>
      <g
         id="g154"
         transform="matrix(0.35277777,0,0,-0.35277777,-37.957947,275.42301)"
         style="stroke-width:2.63531">
        <g
           id="g156"
           style="stroke-width:2.63531">
          <g
             id="g162"
             style="stroke-width:2.63531">
            <g
               id="g164"
               style="stroke-width:2.63531">
              <path
                 d="m 92.816,324.156 v -0.038 c 4.571,-55.474 51.053,-99.065 107.712,-99.035 v 0 c 18.797,0.008 36.43,4.879 51.789,13.399 v 0 c -55.76,-21.079 -115.34,21.379 -129.67,74.909 v 0 c -12.949,48.372 18.797,108.47 23.796,115.046 v 0 C 121.033,419.226 92.839,361.268 92.816,324.156"
                 style="fill:url(#linearGradient172);stroke:none;stroke-width:2.63531"
                 id="path174" />
            </g>
          </g>
        </g>
      </g>
      <g
         id="g176"
         transform="matrix(0.35277777,0,0,-0.35277777,-37.957947,275.42301)"
         style="stroke-width:2.63531">
        <g
           id="g178"
           style="stroke-width:2.63531">
          <g
             id="g184"
             style="stroke-width:2.63531">
            <g
               id="g186"
               style="stroke-width:2.63531">
              <path
                 d="m 122.647,313.391 c 14.33,-53.53 73.91,-95.988 129.67,-74.909 v 0 C 199.38,226.734 146.788,277.351 146.788,327.758 v 0 0.031 c -0.218,1.974 -0.33,3.978 -0.33,6.005 v 0 93.847 c 0,0.263 -0.007,0.533 -0.015,0.796 v 0 c -4.999,-6.576 -36.745,-66.674 -23.796,-115.046"
                 style="fill:url(#linearGradient194);stroke:none;stroke-width:2.63531"
                 id="path196" />
            </g>
          </g>
        </g>
      </g>
      <g
         id="g198"
         transform="matrix(0.35277777,0,0,-0.35277777,-37.957947,275.42301)"
         style="stroke-width:2.63531">
        <g
           id="g200"
           style="stroke-width:2.63531">
          <g
             id="g206"
             style="stroke-width:2.63531">
            <g
               id="g208"
               style="stroke-width:2.63531">
              <path
                 d="M 256.784,274.754 C 201.115,228.078 146.79,296.328 146.79,327.758 v 0 c 0,-50.407 52.592,-101.024 105.528,-89.277 v 0 c 0.503,0.286 1.006,0.572 1.509,0.857 v 0 c 32.699,18.834 54.678,54.4 54.678,94.8 v 0 90.809 c -0.158,-18.504 -3.423,-109.695 -51.721,-150.193"
                 style="fill:url(#linearGradient216);stroke:none;stroke-width:2.63531"
                 id="path218" />
            </g>
          </g>
        </g>
      </g>
      <g
         id="g220"
         transform="matrix(0.35277777,0,0,-0.35277777,-37.943898,275.41382)"
         style="stroke-width:2.63531">
        <g
           id="g222"
           style="stroke-width:2.63531">
          <g
             id="g228"
             style="stroke-width:2.63531">
            <g
               id="g230"
               style="stroke-width:2.63531">
              <path
                 d="m 241.523,297.995 c -0.007,-0.008 -0.014,-0.008 -0.022,-0.016 v 0 c -9.984,-11.657 -24.855,-19.006 -41.444,-18.878 v 0 c -27.745,0.209 -50.31,21.641 -53.267,48.657 v 0 c 0,-31.43 54.325,-99.68 109.994,-53.004 v 0 c 48.298,40.498 51.563,131.689 51.721,150.193 v 0 2.619 c 0,0.458 -0.008,0.698 -0.008,0.698 v 0 c 0,-37.165 -43.583,-113.657 -66.974,-130.269"
                 style="fill:url(#linearGradient238);stroke:none;stroke-width:2.63531"
                 id="path240" />
            </g>
          </g>
        </g>
      </g>
      <g
         id="g242"
         transform="matrix(0.35277777,0,0,-0.35277777,-37.957947,275.42301)"
         style="stroke-width:2.63531">
        <g
           id="g244"
           style="stroke-width:2.63531">
          <g
             id="g250"
             style="stroke-width:2.63531">
            <g
               id="g252"
               style="stroke-width:2.63531">
              <path
                 d="m 281.496,454.65 c -14.915,0 -27.001,-12.093 -27.001,-27.009 v 0 -94.53 c 0,-13.415 -4.886,-25.681 -12.972,-35.116 v 0 c 24.93,24.036 38.366,76.657 39.245,118.206 v 0 c 0.795,37.9 0.732,38.45 0.728,38.45 v 0 c 0,0 0,-0.001 0,-0.001"
                 style="fill:url(#linearGradient260);stroke:none;stroke-width:2.63531"
                 id="path262" />
            </g>
          </g>
        </g>
      </g>
      <g
         id="g264"
         transform="matrix(0.35277777,0,0,-0.35277777,-37.957947,275.42301)"
         style="stroke-width:2.63531">
        <g
           id="g266"
           clip-path="url(#clipPath270)"
           style="stroke-width:2.63531">
          <g
             id="g272"
             style="stroke-width:2.63531">
            <g
               id="g274"
               style="stroke-width:2.63531" />
            <g
               id="g300"
               mask="url(#mask288)"
               style="stroke-width:2.63531">
              <g
                 id="g302"
                 style="stroke-width:2.63531">
                <path
                   d="m 308.378,428.336 c -0.177,-6.21 -1.356,-12.333 -2.977,-18.313 v 0 c -1.57,-5.997 -3.534,-11.889 -5.716,-17.693 v 0 c -2.2,-5.798 -4.531,-11.549 -7.082,-17.206 v 0 c -2.536,-5.662 -5.283,-11.229 -8.13,-16.74 v 0 c -2.835,-5.519 -5.822,-10.96 -8.97,-16.307 v 0 c -3.158,-5.341 -6.5,-10.569 -9.969,-15.711 v 0 c -3.486,-5.13 -7.176,-10.123 -11.147,-14.887 v 0 c -3.947,-4.782 -8.212,-9.312 -12.948,-13.338 v 0 l 0.117,-0.146 c 4.954,3.789 9.357,8.255 13.501,12.91 v 0 c 4.113,4.693 7.916,9.648 11.532,14.728 v 0 c 7.226,10.174 13.54,20.961 19.33,32.002 v 0 c 5.706,11.085 10.826,22.487 15.01,34.242 v 0 c 2.067,5.885 3.913,11.853 5.36,17.925 v 0 c 1.39,6.073 2.437,12.29 2.276,18.537 v 0 z"
                   style="fill:url(#radialGradient310);stroke:none;stroke-width:2.63531"
                   id="path312" />
              </g>
            </g>
          </g>
        </g>
      </g>
      <g
         id="g314"
         transform="matrix(0.35277777,0,0,-0.35277777,-37.957947,275.42301)"
         style="stroke-width:2.63531">
        <g
           id="g316"
           clip-path="url(#clipPath320)"
           style="stroke-width:2.63531">
          <g
             id="g322"
             style="stroke-width:2.63531">
            <g
               id="g324"
               style="stroke-width:2.63531" />
            <g
               id="g350"
               mask="url(#mask338)"
               style="stroke-width:2.63531">
              <g
                 id="g352"
                 style="stroke-width:2.63531">
                <path
                   d="m 146.696,327.756 c 0.093,-6.517 0.929,-13.025 2.415,-19.387 v 0 c 1.523,-6.353 3.741,-12.546 6.584,-18.442 v 0 c 5.702,-11.795 13.976,-22.307 23.881,-30.876 v 0 c 4.981,-4.259 10.369,-8.039 16.074,-11.257 v 0 c 5.706,-3.211 11.726,-5.896 17.996,-7.8 v 0 c 6.258,-1.92 12.736,-3.155 19.27,-3.503 v 0 c 6.528,-0.31 13.119,0.223 19.425,1.899 v 0 l -0.046,0.183 c -6.348,-1.398 -12.879,-1.798 -19.329,-1.29 v 0 c -6.453,0.471 -12.831,1.793 -18.976,3.798 v 0 c -12.297,4.005 -23.712,10.602 -33.481,19.055 v 0 c -9.836,8.384 -17.983,18.742 -23.788,30.298 v 0 c -2.911,5.773 -5.207,11.861 -6.836,18.128 v 0 c -1.673,6.261 -2.627,12.708 -3.001,19.199 v 0 z"
                   style="fill:url(#radialGradient360);stroke:none;stroke-width:2.63531"
                   id="path362" />
              </g>
            </g>
          </g>
        </g>
      </g>
      <g
         id="g364"
         transform="matrix(0.35277777,0,0,-0.35277777,-37.957947,275.42301)"
         style="stroke-width:2.63531">
        <g
           id="g366"
           clip-path="url(#clipPath370)"
           style="stroke-width:2.63531">
          <g
             id="g372"
             style="stroke-width:2.63531">
            <g
               id="g374"
               style="stroke-width:2.63531" />
            <g
               id="g400"
               mask="url(#mask388)"
               style="stroke-width:2.63531">
              <g
                 id="g402"
                 style="stroke-width:2.63531">
                <path
                   d="m 139.552,425.201 c -2.113,-1.432 -4.107,-3.042 -5.957,-4.797 v 0 c -3.72,-3.493 -7.079,-7.349 -10.175,-11.395 v 0 c -6.133,-8.138 -11.38,-16.928 -15.749,-26.124 v 0 c -4.366,-9.193 -8.026,-18.745 -10.582,-28.603 v 0 c -2.654,-9.826 -4.141,-19.969 -4.366,-30.124 v 0 l 0.187,-0.006 c 0.259,5.065 0.853,10.103 1.722,15.089 v 0 c 0.241,1.243 0.426,2.495 0.692,3.733 v 0 l 0.779,3.714 c 0.593,2.46 1.179,4.92 1.884,7.35 v 0 c 1.383,4.866 2.969,9.673 4.745,14.408 v 0 c 1.805,4.725 3.811,9.372 6.01,13.925 v 0 c 2.211,4.546 4.569,9.024 7.139,13.378 v 0 c 2.578,4.349 5.363,8.575 8.372,12.634 v 0 c 2.987,4.073 6.238,7.963 9.844,11.494 v 0 c 1.794,1.775 3.692,3.447 5.733,4.925 v 0 c 2.037,1.471 4.221,2.8 6.638,3.545 v 0 l -0.05,0.18 c -2.487,-0.634 -4.758,-1.901 -6.866,-3.326"
                   style="fill:url(#radialGradient410);stroke:none;stroke-width:2.63531"
                   id="path412" />
              </g>
            </g>
          </g>
        </g>
      </g>
    </g>
  </g>
</svg>
