<?xml version="1.0" encoding="utf-8" standalone="no"?>
<!DOCTYPE svg PUBLIC "-//W3C//DTD SVG 1.1//EN"
  "http://www.w3.org/Graphics/SVG/1.1/DTD/svg11.dtd">
<svg xmlns:xlink="http://www.w3.org/1999/xlink" width="515.884844pt" height="383.13875pt" viewBox="0 0 515.884844 383.13875" xmlns="http://www.w3.org/2000/svg" version="1.1">
 <metadata>
  <rdf:RDF xmlns:dc="http://purl.org/dc/elements/1.1/" xmlns:cc="http://creativecommons.org/ns#" xmlns:rdf="http://www.w3.org/1999/02/22-rdf-syntax-ns#">
   <cc:Work>
    <dc:type rdf:resource="http://purl.org/dc/dcmitype/StillImage"/>
    <dc:date>2024-08-09T18:16:01.263503</dc:date>
    <dc:format>image/svg+xml</dc:format>
    <dc:creator>
     <cc:Agent>
      <dc:title>Matplotlib v3.9.1, https://matplotlib.org/</dc:title>
     </cc:Agent>
    </dc:creator>
   </cc:Work>
  </rdf:RDF>
 </metadata>
 <defs>
  <style type="text/css">*{stroke-linejoin: round; stroke-linecap: butt}</style>
 </defs>
 <g id="figure_1">
  <g id="patch_1">
   <path d="M 0 383.13875 
L 515.884844 383.13875 
L 515.884844 0 
L 0 0 
z
" style="fill: #ffffff"/>
  </g>
  <g id="axes_1">
   <g id="patch_2">
    <path d="M 62.284844 339.84 
L 508.684844 339.84 
L 508.684844 7.2 
L 62.284844 7.2 
z
" style="fill: #eaeaf2"/>
   </g>
   <g id="matplotlib.axis_1">
    <g id="xtick_1">
     <g id="line2d_1">
      <path d="M 81.76249 339.84 
L 81.76249 7.2 
" clip-path="url(#p12b9154a78)" style="fill: none; stroke: #ffffff; stroke-linecap: round"/>
     </g>
     <g id="line2d_2"/>
     <g id="text_1">
      <!-- 0.0 -->
      <g style="fill: #262626" transform="translate(71.425459 354.717969) scale(0.13 -0.13)">
       <defs>
        <path id="DejaVuSans-30" d="M 2034 4250 
Q 1547 4250 1301 3770 
Q 1056 3291 1056 2328 
Q 1056 1369 1301 889 
Q 1547 409 2034 409 
Q 2525 409 2770 889 
Q 3016 1369 3016 2328 
Q 3016 3291 2770 3770 
Q 2525 4250 2034 4250 
z
M 2034 4750 
Q 2819 4750 3233 4129 
Q 3647 3509 3647 2328 
Q 3647 1150 3233 529 
Q 2819 -91 2034 -91 
Q 1250 -91 836 529 
Q 422 1150 422 2328 
Q 422 3509 836 4129 
Q 1250 4750 2034 4750 
z
" transform="scale(0.015625)"/>
        <path id="DejaVuSans-2e" d="M 684 794 
L 1344 794 
L 1344 0 
L 684 0 
L 684 794 
z
" transform="scale(0.015625)"/>
       </defs>
       <use xlink:href="#DejaVuSans-30"/>
       <use xlink:href="#DejaVuSans-2e" x="63.623047"/>
       <use xlink:href="#DejaVuSans-30" x="95.410156"/>
      </g>
     </g>
    </g>
    <g id="xtick_2">
     <g id="line2d_3">
      <path d="M 132.591421 339.84 
L 132.591421 7.2 
" clip-path="url(#p12b9154a78)" style="fill: none; stroke: #ffffff; stroke-linecap: round"/>
     </g>
     <g id="line2d_4"/>
     <g id="text_2">
      <!-- 2.5 -->
      <g style="fill: #262626" transform="translate(122.254389 354.717969) scale(0.13 -0.13)">
       <defs>
        <path id="DejaVuSans-32" d="M 1228 531 
L 3431 531 
L 3431 0 
L 469 0 
L 469 531 
Q 828 903 1448 1529 
Q 2069 2156 2228 2338 
Q 2531 2678 2651 2914 
Q 2772 3150 2772 3378 
Q 2772 3750 2511 3984 
Q 2250 4219 1831 4219 
Q 1534 4219 1204 4116 
Q 875 4013 500 3803 
L 500 4441 
Q 881 4594 1212 4672 
Q 1544 4750 1819 4750 
Q 2544 4750 2975 4387 
Q 3406 4025 3406 3419 
Q 3406 3131 3298 2873 
Q 3191 2616 2906 2266 
Q 2828 2175 2409 1742 
Q 1991 1309 1228 531 
z
" transform="scale(0.015625)"/>
        <path id="DejaVuSans-35" d="M 691 4666 
L 3169 4666 
L 3169 4134 
L 1269 4134 
L 1269 2991 
Q 1406 3038 1543 3061 
Q 1681 3084 1819 3084 
Q 2600 3084 3056 2656 
Q 3513 2228 3513 1497 
Q 3513 744 3044 326 
Q 2575 -91 1722 -91 
Q 1428 -91 1123 -41 
Q 819 9 494 109 
L 494 744 
Q 775 591 1075 516 
Q 1375 441 1709 441 
Q 2250 441 2565 725 
Q 2881 1009 2881 1497 
Q 2881 1984 2565 2268 
Q 2250 2553 1709 2553 
Q 1456 2553 1204 2497 
Q 953 2441 691 2322 
L 691 4666 
z
" transform="scale(0.015625)"/>
       </defs>
       <use xlink:href="#DejaVuSans-32"/>
       <use xlink:href="#DejaVuSans-2e" x="63.623047"/>
       <use xlink:href="#DejaVuSans-35" x="95.410156"/>
      </g>
     </g>
    </g>
    <g id="xtick_3">
     <g id="line2d_5">
      <path d="M 183.420351 339.84 
L 183.420351 7.2 
" clip-path="url(#p12b9154a78)" style="fill: none; stroke: #ffffff; stroke-linecap: round"/>
     </g>
     <g id="line2d_6"/>
     <g id="text_3">
      <!-- 5.0 -->
      <g style="fill: #262626" transform="translate(173.08332 354.717969) scale(0.13 -0.13)">
       <use xlink:href="#DejaVuSans-35"/>
       <use xlink:href="#DejaVuSans-2e" x="63.623047"/>
       <use xlink:href="#DejaVuSans-30" x="95.410156"/>
      </g>
     </g>
    </g>
    <g id="xtick_4">
     <g id="line2d_7">
      <path d="M 234.249282 339.84 
L 234.249282 7.2 
" clip-path="url(#p12b9154a78)" style="fill: none; stroke: #ffffff; stroke-linecap: round"/>
     </g>
     <g id="line2d_8"/>
     <g id="text_4">
      <!-- 7.5 -->
      <g style="fill: #262626" transform="translate(223.91225 354.717969) scale(0.13 -0.13)">
       <defs>
        <path id="DejaVuSans-37" d="M 525 4666 
L 3525 4666 
L 3525 4397 
L 1831 0 
L 1172 0 
L 2766 4134 
L 525 4134 
L 525 4666 
z
" transform="scale(0.015625)"/>
       </defs>
       <use xlink:href="#DejaVuSans-37"/>
       <use xlink:href="#DejaVuSans-2e" x="63.623047"/>
       <use xlink:href="#DejaVuSans-35" x="95.410156"/>
      </g>
     </g>
    </g>
    <g id="xtick_5">
     <g id="line2d_9">
      <path d="M 285.078212 339.84 
L 285.078212 7.2 
" clip-path="url(#p12b9154a78)" style="fill: none; stroke: #ffffff; stroke-linecap: round"/>
     </g>
     <g id="line2d_10"/>
     <g id="text_5">
      <!-- 10.0 -->
      <g style="fill: #262626" transform="translate(270.605556 354.717969) scale(0.13 -0.13)">
       <defs>
        <path id="DejaVuSans-31" d="M 794 531 
L 1825 531 
L 1825 4091 
L 703 3866 
L 703 4441 
L 1819 4666 
L 2450 4666 
L 2450 531 
L 3481 531 
L 3481 0 
L 794 0 
L 794 531 
z
" transform="scale(0.015625)"/>
       </defs>
       <use xlink:href="#DejaVuSans-31"/>
       <use xlink:href="#DejaVuSans-30" x="63.623047"/>
       <use xlink:href="#DejaVuSans-2e" x="127.246094"/>
       <use xlink:href="#DejaVuSans-30" x="159.033203"/>
      </g>
     </g>
    </g>
    <g id="xtick_6">
     <g id="line2d_11">
      <path d="M 335.907143 339.84 
L 335.907143 7.2 
" clip-path="url(#p12b9154a78)" style="fill: none; stroke: #ffffff; stroke-linecap: round"/>
     </g>
     <g id="line2d_12"/>
     <g id="text_6">
      <!-- 12.5 -->
      <g style="fill: #262626" transform="translate(321.434487 354.717969) scale(0.13 -0.13)">
       <use xlink:href="#DejaVuSans-31"/>
       <use xlink:href="#DejaVuSans-32" x="63.623047"/>
       <use xlink:href="#DejaVuSans-2e" x="127.246094"/>
       <use xlink:href="#DejaVuSans-35" x="159.033203"/>
      </g>
     </g>
    </g>
    <g id="xtick_7">
     <g id="line2d_13">
      <path d="M 386.736073 339.84 
L 386.736073 7.2 
" clip-path="url(#p12b9154a78)" style="fill: none; stroke: #ffffff; stroke-linecap: round"/>
     </g>
     <g id="line2d_14"/>
     <g id="text_7">
      <!-- 15.0 -->
      <g style="fill: #262626" transform="translate(372.263417 354.717969) scale(0.13 -0.13)">
       <use xlink:href="#DejaVuSans-31"/>
       <use xlink:href="#DejaVuSans-35" x="63.623047"/>
       <use xlink:href="#DejaVuSans-2e" x="127.246094"/>
       <use xlink:href="#DejaVuSans-30" x="159.033203"/>
      </g>
     </g>
    </g>
    <g id="xtick_8">
     <g id="line2d_15">
      <path d="M 437.565004 339.84 
L 437.565004 7.2 
" clip-path="url(#p12b9154a78)" style="fill: none; stroke: #ffffff; stroke-linecap: round"/>
     </g>
     <g id="line2d_16"/>
     <g id="text_8">
      <!-- 17.5 -->
      <g style="fill: #262626" transform="translate(423.092348 354.717969) scale(0.13 -0.13)">
       <use xlink:href="#DejaVuSans-31"/>
       <use xlink:href="#DejaVuSans-37" x="63.623047"/>
       <use xlink:href="#DejaVuSans-2e" x="127.246094"/>
       <use xlink:href="#DejaVuSans-35" x="159.033203"/>
      </g>
     </g>
    </g>
    <g id="xtick_9">
     <g id="line2d_17">
      <path d="M 488.393935 339.84 
L 488.393935 7.2 
" clip-path="url(#p12b9154a78)" style="fill: none; stroke: #ffffff; stroke-linecap: round"/>
     </g>
     <g id="line2d_18"/>
     <g id="text_9">
      <!-- 20.0 -->
      <g style="fill: #262626" transform="translate(473.921278 354.717969) scale(0.13 -0.13)">
       <use xlink:href="#DejaVuSans-32"/>
       <use xlink:href="#DejaVuSans-30" x="63.623047"/>
       <use xlink:href="#DejaVuSans-2e" x="127.246094"/>
       <use xlink:href="#DejaVuSans-30" x="159.033203"/>
      </g>
     </g>
    </g>
    <g id="text_10">
     <!-- t(ns) -->
     <g style="fill: #262626" transform="translate(268.032109 372.819219) scale(0.15 -0.15)">
      <defs>
       <path id="DejaVuSans-74" d="M 1172 4494 
L 1172 3500 
L 2356 3500 
L 2356 3053 
L 1172 3053 
L 1172 1153 
Q 1172 725 1289 603 
Q 1406 481 1766 481 
L 2356 481 
L 2356 0 
L 1766 0 
Q 1100 0 847 248 
Q 594 497 594 1153 
L 594 3053 
L 172 3053 
L 172 3500 
L 594 3500 
L 594 4494 
L 1172 4494 
z
" transform="scale(0.015625)"/>
       <path id="DejaVuSans-28" d="M 1984 4856 
Q 1566 4138 1362 3434 
Q 1159 2731 1159 2009 
Q 1159 1288 1364 580 
Q 1569 -128 1984 -844 
L 1484 -844 
Q 1016 -109 783 600 
Q 550 1309 550 2009 
Q 550 2706 781 3412 
Q 1013 4119 1484 4856 
L 1984 4856 
z
" transform="scale(0.015625)"/>
       <path id="DejaVuSans-6e" d="M 3513 2113 
L 3513 0 
L 2938 0 
L 2938 2094 
Q 2938 2591 2744 2837 
Q 2550 3084 2163 3084 
Q 1697 3084 1428 2787 
Q 1159 2491 1159 1978 
L 1159 0 
L 581 0 
L 581 3500 
L 1159 3500 
L 1159 2956 
Q 1366 3272 1645 3428 
Q 1925 3584 2291 3584 
Q 2894 3584 3203 3211 
Q 3513 2838 3513 2113 
z
" transform="scale(0.015625)"/>
       <path id="DejaVuSans-73" d="M 2834 3397 
L 2834 2853 
Q 2591 2978 2328 3040 
Q 2066 3103 1784 3103 
Q 1356 3103 1142 2972 
Q 928 2841 928 2578 
Q 928 2378 1081 2264 
Q 1234 2150 1697 2047 
L 1894 2003 
Q 2506 1872 2764 1633 
Q 3022 1394 3022 966 
Q 3022 478 2636 193 
Q 2250 -91 1575 -91 
Q 1294 -91 989 -36 
Q 684 19 347 128 
L 347 722 
Q 666 556 975 473 
Q 1284 391 1588 391 
Q 1994 391 2212 530 
Q 2431 669 2431 922 
Q 2431 1156 2273 1281 
Q 2116 1406 1581 1522 
L 1381 1569 
Q 847 1681 609 1914 
Q 372 2147 372 2553 
Q 372 3047 722 3315 
Q 1072 3584 1716 3584 
Q 2034 3584 2315 3537 
Q 2597 3491 2834 3397 
z
" transform="scale(0.015625)"/>
       <path id="DejaVuSans-29" d="M 513 4856 
L 1013 4856 
Q 1481 4119 1714 3412 
Q 1947 2706 1947 2009 
Q 1947 1309 1714 600 
Q 1481 -109 1013 -844 
L 513 -844 
Q 928 -128 1133 580 
Q 1338 1288 1338 2009 
Q 1338 2731 1133 3434 
Q 928 4138 513 4856 
z
" transform="scale(0.015625)"/>
      </defs>
      <use xlink:href="#DejaVuSans-74"/>
      <use xlink:href="#DejaVuSans-28" x="39.208984"/>
      <use xlink:href="#DejaVuSans-6e" x="78.222656"/>
      <use xlink:href="#DejaVuSans-73" x="141.601562"/>
      <use xlink:href="#DejaVuSans-29" x="193.701172"/>
     </g>
    </g>
   </g>
   <g id="matplotlib.axis_2">
    <g id="ytick_1">
     <g id="line2d_19">
      <path d="M 62.284844 327.399383 
L 508.684844 327.399383 
" clip-path="url(#p12b9154a78)" style="fill: none; stroke: #ffffff; stroke-linecap: round"/>
     </g>
     <g id="line2d_20"/>
     <g id="text_11">
      <!-- −0.4 -->
      <g style="fill: #262626" transform="translate(25.717187 332.338367) scale(0.13 -0.13)">
       <defs>
        <path id="DejaVuSans-2212" d="M 678 2272 
L 4684 2272 
L 4684 1741 
L 678 1741 
L 678 2272 
z
" transform="scale(0.015625)"/>
        <path id="DejaVuSans-34" d="M 2419 4116 
L 825 1625 
L 2419 1625 
L 2419 4116 
z
M 2253 4666 
L 3047 4666 
L 3047 1625 
L 3713 1625 
L 3713 1100 
L 3047 1100 
L 3047 0 
L 2419 0 
L 2419 1100 
L 313 1100 
L 313 1709 
L 2253 4666 
z
" transform="scale(0.015625)"/>
       </defs>
       <use xlink:href="#DejaVuSans-2212"/>
       <use xlink:href="#DejaVuSans-30" x="83.789062"/>
       <use xlink:href="#DejaVuSans-2e" x="147.412109"/>
       <use xlink:href="#DejaVuSans-34" x="179.199219"/>
      </g>
     </g>
    </g>
    <g id="ytick_2">
     <g id="line2d_21">
      <path d="M 62.284844 255.589437 
L 508.684844 255.589437 
" clip-path="url(#p12b9154a78)" style="fill: none; stroke: #ffffff; stroke-linecap: round"/>
     </g>
     <g id="line2d_22"/>
     <g id="text_12">
      <!-- −0.2 -->
      <g style="fill: #262626" transform="translate(25.717187 260.528421) scale(0.13 -0.13)">
       <use xlink:href="#DejaVuSans-2212"/>
       <use xlink:href="#DejaVuSans-30" x="83.789062"/>
       <use xlink:href="#DejaVuSans-2e" x="147.412109"/>
       <use xlink:href="#DejaVuSans-32" x="179.199219"/>
      </g>
     </g>
    </g>
    <g id="ytick_3">
     <g id="line2d_23">
      <path d="M 62.284844 183.779491 
L 508.684844 183.779491 
" clip-path="url(#p12b9154a78)" style="fill: none; stroke: #ffffff; stroke-linecap: round"/>
     </g>
     <g id="line2d_24"/>
     <g id="text_13">
      <!-- 0.0 -->
      <g style="fill: #262626" transform="translate(36.610781 188.718475) scale(0.13 -0.13)">
       <use xlink:href="#DejaVuSans-30"/>
       <use xlink:href="#DejaVuSans-2e" x="63.623047"/>
       <use xlink:href="#DejaVuSans-30" x="95.410156"/>
      </g>
     </g>
    </g>
    <g id="ytick_4">
     <g id="line2d_25">
      <path d="M 62.284844 111.969545 
L 508.684844 111.969545 
" clip-path="url(#p12b9154a78)" style="fill: none; stroke: #ffffff; stroke-linecap: round"/>
     </g>
     <g id="line2d_26"/>
     <g id="text_14">
      <!-- 0.2 -->
      <g style="fill: #262626" transform="translate(36.610781 116.908529) scale(0.13 -0.13)">
       <use xlink:href="#DejaVuSans-30"/>
       <use xlink:href="#DejaVuSans-2e" x="63.623047"/>
       <use xlink:href="#DejaVuSans-32" x="95.410156"/>
      </g>
     </g>
    </g>
    <g id="ytick_5">
     <g id="line2d_27">
      <path d="M 62.284844 40.159599 
L 508.684844 40.159599 
" clip-path="url(#p12b9154a78)" style="fill: none; stroke: #ffffff; stroke-linecap: round"/>
     </g>
     <g id="line2d_28"/>
     <g id="text_15">
      <!-- 0.4 -->
      <g style="fill: #262626" transform="translate(36.610781 45.098583) scale(0.13 -0.13)">
       <use xlink:href="#DejaVuSans-30"/>
       <use xlink:href="#DejaVuSans-2e" x="63.623047"/>
       <use xlink:href="#DejaVuSans-34" x="95.410156"/>
      </g>
     </g>
    </g>
    <g id="text_16">
     <!-- value -->
     <g style="fill: #262626" transform="translate(18.597656 194.006719) rotate(-90) scale(0.15 -0.15)">
      <defs>
       <path id="DejaVuSans-76" d="M 191 3500 
L 800 3500 
L 1894 563 
L 2988 3500 
L 3597 3500 
L 2284 0 
L 1503 0 
L 191 3500 
z
" transform="scale(0.015625)"/>
       <path id="DejaVuSans-61" d="M 2194 1759 
Q 1497 1759 1228 1600 
Q 959 1441 959 1056 
Q 959 750 1161 570 
Q 1363 391 1709 391 
Q 2188 391 2477 730 
Q 2766 1069 2766 1631 
L 2766 1759 
L 2194 1759 
z
M 3341 1997 
L 3341 0 
L 2766 0 
L 2766 531 
Q 2569 213 2275 61 
Q 1981 -91 1556 -91 
Q 1019 -91 701 211 
Q 384 513 384 1019 
Q 384 1609 779 1909 
Q 1175 2209 1959 2209 
L 2766 2209 
L 2766 2266 
Q 2766 2663 2505 2880 
Q 2244 3097 1772 3097 
Q 1472 3097 1187 3025 
Q 903 2953 641 2809 
L 641 3341 
Q 956 3463 1253 3523 
Q 1550 3584 1831 3584 
Q 2591 3584 2966 3190 
Q 3341 2797 3341 1997 
z
" transform="scale(0.015625)"/>
       <path id="DejaVuSans-6c" d="M 603 4863 
L 1178 4863 
L 1178 0 
L 603 0 
L 603 4863 
z
" transform="scale(0.015625)"/>
       <path id="DejaVuSans-75" d="M 544 1381 
L 544 3500 
L 1119 3500 
L 1119 1403 
Q 1119 906 1312 657 
Q 1506 409 1894 409 
Q 2359 409 2629 706 
Q 2900 1003 2900 1516 
L 2900 3500 
L 3475 3500 
L 3475 0 
L 2900 0 
L 2900 538 
Q 2691 219 2414 64 
Q 2138 -91 1772 -91 
Q 1169 -91 856 284 
Q 544 659 544 1381 
z
M 1991 3584 
L 1991 3584 
z
" transform="scale(0.015625)"/>
       <path id="DejaVuSans-65" d="M 3597 1894 
L 3597 1613 
L 953 1613 
Q 991 1019 1311 708 
Q 1631 397 2203 397 
Q 2534 397 2845 478 
Q 3156 559 3463 722 
L 3463 178 
Q 3153 47 2828 -22 
Q 2503 -91 2169 -91 
Q 1331 -91 842 396 
Q 353 884 353 1716 
Q 353 2575 817 3079 
Q 1281 3584 2069 3584 
Q 2775 3584 3186 3129 
Q 3597 2675 3597 1894 
z
M 3022 2063 
Q 3016 2534 2758 2815 
Q 2500 3097 2075 3097 
Q 1594 3097 1305 2825 
Q 1016 2553 972 2059 
L 3022 2063 
z
" transform="scale(0.015625)"/>
      </defs>
      <use xlink:href="#DejaVuSans-76"/>
      <use xlink:href="#DejaVuSans-61" x="59.179688"/>
      <use xlink:href="#DejaVuSans-6c" x="120.458984"/>
      <use xlink:href="#DejaVuSans-75" x="148.242188"/>
      <use xlink:href="#DejaVuSans-65" x="211.621094"/>
     </g>
    </g>
   </g>
   <g id="line2d_29">
    <path d="M 82.575753 33.678812 
L 83.389016 30.581899 
L 84.202279 30.930367 
L 85.015542 74.105694 
L 85.828804 91.533366 
L 86.642067 115.530632 
L 87.45533 154.220005 
L 89.895119 245.928461 
L 90.708382 269.816293 
L 92.334908 310.288233 
L 93.14817 317.766112 
L 93.961433 322.97615 
L 94.774696 324.72 
L 96.401222 304.080766 
L 97.214485 286.858579 
L 98.841011 241.999409 
L 102.094062 137.454773 
L 102.907325 116.048723 
L 103.720588 97.827312 
L 104.533851 83.613408 
L 105.347114 74.644395 
L 106.160377 70.064627 
L 106.97364 70.733876 
L 107.786902 76.419068 
L 108.600165 86.40008 
L 109.413428 100.522126 
L 111.039954 137.212583 
L 114.293006 222.26835 
L 115.106268 239.693248 
L 115.919531 254.193531 
L 116.732794 265.591013 
L 117.546057 272.934053 
L 118.35932 275.868682 
L 119.172583 275.313933 
L 119.985846 270.176976 
L 120.799109 261.852279 
L 121.612372 250.066801 
L 122.425634 235.876103 
L 127.305212 138.210225 
L 128.118475 126.13552 
L 128.931738 117.468883 
L 129.745 111.471131 
L 130.558263 108.921346 
L 131.371526 109.885468 
L 132.184789 113.989897 
L 132.998052 120.90732 
L 134.624578 141.962645 
L 136.251104 169.516981 
L 137.877629 198.30966 
L 138.690892 211.382207 
L 139.504155 222.406707 
L 141.130681 238.93585 
L 141.943944 242.767609 
L 142.757207 244.6233 
L 143.57047 243.832726 
L 144.383732 239.796539 
L 145.196995 234.552657 
L 146.010258 226.306982 
L 147.636784 206.287753 
L 150.889836 162.556656 
L 152.516361 145.540692 
L 153.329624 139.530559 
L 154.142887 136.350748 
L 154.95615 134.430559 
L 155.769413 134.887281 
L 156.582676 138.050202 
L 157.395939 142.311591 
L 158.209202 148.456958 
L 159.835727 165.291739 
L 163.088779 201.925933 
L 163.902042 209.629291 
L 164.715305 215.751736 
L 165.528568 219.902964 
L 166.34183 222.516561 
L 167.155093 223.858338 
L 167.968356 222.819099 
L 168.781619 219.783917 
L 169.594882 215.827268 
L 170.408145 210.690299 
L 171.221408 204.30138 
L 173.661196 181.216307 
L 175.287722 166.995238 
L 176.100985 161.421349 
L 176.914248 157.145778 
L 177.727511 154.019714 
L 178.540774 151.831931 
L 179.354037 151.019851 
L 180.1673 152.168275 
L 180.980562 154.82708 
L 181.793825 158.294265 
L 182.607088 162.448007 
L 183.420351 167.349164 
L 185.046877 179.052368 
L 186.673403 191.049902 
L 187.486666 196.284682 
L 188.299928 200.721268 
L 189.113191 204.362253 
L 189.926454 207.285824 
L 190.739717 209.461153 
L 191.55298 210.575276 
L 192.366243 210.23946 
L 193.179506 208.510749 
L 193.992769 205.830009 
L 194.806032 202.540464 
L 196.432557 194.550701 
L 199.685609 176.186811 
L 201.312135 168.907489 
L 202.125398 166.044872 
L 202.93866 163.781066 
L 203.751923 162.319217 
L 204.565186 161.922083 
L 205.378449 162.700772 
L 206.191712 164.500245 
L 207.004975 167.040123 
L 208.631501 173.504171 
L 212.697815 191.898303 
L 214.324341 197.563709 
L 215.137604 199.642116 
L 215.950867 201.001564 
L 216.76413 201.460605 
L 217.577392 200.939574 
L 218.390655 199.518961 
L 219.203918 197.386835 
L 220.830444 191.766229 
L 224.896758 176.173892 
L 225.710021 173.679511 
L 226.523284 171.647208 
L 227.336547 170.226575 
L 228.14981 169.564269 
L 228.963073 169.742598 
L 229.776336 170.73491 
L 230.589599 172.41711 
L 231.402862 174.61915 
L 233.029387 179.92493 
L 235.469176 188.178975 
L 236.282439 190.570644 
L 237.095702 192.598902 
L 237.908965 194.13484 
L 238.722228 195.050375 
L 239.53549 195.25503 
L 240.348753 194.732488 
L 241.162016 193.549948 
L 241.975279 191.834776 
L 243.601805 187.408743 
L 246.041594 180.279713 
L 246.854857 178.228024 
L 247.668119 176.523896 
L 248.481382 175.28235 
L 249.294645 174.603222 
L 250.107908 174.544547 
L 250.921171 175.102002 
L 251.734434 176.208116 
L 252.547697 177.750818 
L 254.174223 181.62077 
L 256.614011 187.557058 
L 257.427274 189.132463 
L 258.240537 190.333999 
L 259.0538 191.073924 
L 259.867063 191.295758 
L 260.680326 190.98969 
L 261.493589 190.196871 
L 262.306851 189.000096 
L 263.933377 185.831733 
L 266.373166 180.816965 
L 267.186429 179.486278 
L 267.999692 178.478504 
L 268.812955 177.864522 
L 269.626217 177.68678 
L 270.43948 177.949823 
L 271.252743 178.618348 
L 272.066006 179.623975 
L 273.692532 182.279659 
L 276.132321 186.410015 
L 276.945583 187.462695 
L 277.758846 188.226032 
L 278.572109 188.648056 
L 279.385372 188.703392 
L 280.198635 188.398024 
L 281.011898 187.768578 
L 281.825161 186.876267 
L 283.451687 184.618074 
L 285.078212 182.290195 
L 285.891475 181.300375 
L 286.704738 180.518701 
L 287.518001 179.997861 
L 288.331264 179.771094 
L 289.144527 179.847787 
L 289.95779 180.212048 
L 290.771053 180.825101 
L 292.397578 182.561848 
L 294.837367 185.395224 
L 295.65063 186.130231 
L 296.463893 186.668947 
L 297.277156 186.976266 
L 298.090419 187.035401 
L 298.903681 186.849752 
L 299.716944 186.442287 
L 301.34347 185.131641 
L 304.596522 182.111971 
L 305.409785 181.597727 
L 306.223047 181.263227 
L 307.03631 181.128361 
L 307.849573 181.196989 
L 308.662836 181.456788 
L 309.476099 181.880903 
L 311.102625 183.061286 
L 313.542413 184.939471 
L 314.355676 185.408984 
L 315.168939 185.740426 
L 315.982202 185.913152 
L 316.795465 185.919245 
L 317.608728 185.76399 
L 319.235254 185.050429 
L 323.301568 182.577104 
L 324.114831 182.265072 
L 324.928094 182.078001 
L 325.741357 182.025893 
L 326.55462 182.108047 
L 328.181145 182.621882 
L 330.620934 183.874121 
L 332.24746 184.653712 
L 333.873986 185.125298 
L 335.500511 185.172183 
L 337.127037 184.810043 
L 339.566826 183.815764 
L 341.193352 183.155836 
L 342.819877 182.723478 
L 344.446403 182.629198 
L 346.072929 182.877101 
L 348.512718 183.659983 
L 350.952506 184.436046 
L 352.579032 184.698336 
L 354.205558 184.673994 
L 355.832084 184.390252 
L 360.711661 183.14576 
L 362.338187 183.012149 
L 363.964713 183.112087 
L 366.404501 183.584974 
L 369.657553 184.263299 
L 371.284079 184.399761 
L 372.910604 184.345367 
L 375.350393 183.983128 
L 378.603445 183.414403 
L 380.22997 183.281499 
L 381.856496 183.303508 
L 384.296285 183.577874 
L 388.362599 184.128521 
L 390.802388 184.176941 
L 393.242177 183.971846 
L 398.121754 183.465207 
L 400.561543 183.48014 
L 404.627857 183.84775 
L 407.880909 184.049337 
L 410.320697 183.994559 
L 418.453326 183.567979 
L 422.519641 183.793609 
L 426.585955 183.960235 
L 430.65227 183.826521 
L 435.531847 183.633448 
L 439.598161 183.730764 
L 445.291002 183.89885 
L 450.983842 183.739786 
L 455.863419 183.696327 
L 466.435837 183.82181 
L 474.568466 183.728693 
L 485.140883 183.802348 
L 488.393935 183.75301 
L 488.393935 183.75301 
" clip-path="url(#p12b9154a78)" style="fill: none; stroke: #4c72b0; stroke-width: 1.75; stroke-linecap: round"/>
   </g>
   <g id="line2d_30">
    <path d="M 82.575753 165.714621 
L 83.389016 114.859543 
L 84.202279 89.304359 
L 85.015542 82.442948 
L 85.828804 41.268105 
L 86.642067 38.495557 
L 87.45533 34.84509 
L 88.268593 22.32 
L 89.081856 36.001161 
L 90.708382 57.809477 
L 91.521645 86.31419 
L 92.334908 107.243734 
L 96.401222 247.972623 
L 98.027748 287.212506 
L 98.841011 301.018143 
L 99.654274 307.468141 
L 100.467536 310.372839 
L 101.280799 306.655504 
L 102.094062 297.389089 
L 102.907325 284.658512 
L 104.533851 246.178217 
L 108.600165 132.585487 
L 109.413428 114.064656 
L 110.226691 99.644484 
L 111.039954 88.95139 
L 111.853217 82.843484 
L 112.66648 81.286474 
L 113.479743 84.431342 
L 114.293006 91.771684 
L 115.106268 102.880717 
L 115.919531 117.267306 
L 117.546057 152.350792 
L 119.985846 210.153378 
L 120.799109 226.91402 
L 121.612372 241.322795 
L 122.425634 253.262375 
L 123.238897 261.080293 
L 124.05216 266.190882 
L 124.865423 266.888669 
L 125.678686 264.443539 
L 126.491949 258.424362 
L 127.305212 249.149153 
L 128.118475 237.55879 
L 128.931738 224.047944 
L 132.184789 161.74789 
L 132.998052 147.808594 
L 133.811315 136.259052 
L 134.624578 127.186467 
L 135.437841 120.383195 
L 136.251104 117.095668 
L 137.064366 116.411969 
L 137.877629 119.126955 
L 138.690892 124.311673 
L 139.504155 131.989267 
L 141.130681 153.110626 
L 142.757207 178.195564 
L 144.383732 202.734505 
L 145.196995 213.613791 
L 146.823521 230.364246 
L 147.636784 235.362028 
L 148.450047 237.811431 
L 149.26331 238.861192 
L 150.076573 236.506098 
L 150.889836 232.42794 
L 151.703098 226.810916 
L 153.329624 209.272654 
L 157.395939 160.398692 
L 158.209202 152.495258 
L 159.022464 146.217931 
L 159.835727 142.350937 
L 160.64899 140.035521 
L 161.462253 139.313627 
L 162.275516 141.366138 
L 163.088779 145.004749 
L 163.902042 149.738988 
L 164.715305 156.199684 
L 166.34183 172.406242 
L 168.781619 197.772111 
L 169.594882 205.035777 
L 170.408145 210.867896 
L 171.221408 215.091307 
L 172.034671 217.956904 
L 172.847934 219.740204 
L 173.661196 219.639523 
L 174.474459 217.409026 
L 175.287722 214.034322 
L 176.100985 209.860125 
L 176.914248 204.716988 
L 178.540774 191.826203 
L 180.980562 171.67701 
L 181.793825 166.28343 
L 182.607088 161.929224 
L 183.420351 158.530861 
L 184.233614 155.957565 
L 185.046877 154.362774 
L 185.86014 154.290808 
L 186.673403 155.890017 
L 187.486666 158.627559 
L 188.299928 162.042746 
L 189.113191 166.027478 
L 190.739717 175.667803 
L 193.179506 191.402677 
L 193.992769 195.861966 
L 194.806032 199.681808 
L 195.619294 202.884523 
L 196.432557 205.471425 
L 197.24582 207.29531 
L 198.059083 208.03943 
L 198.872346 207.471246 
L 199.685609 205.717314 
L 200.498872 203.125118 
L 202.125398 196.397697 
L 203.751923 188.311899 
L 206.191712 176.107991 
L 207.818238 169.645945 
L 208.631501 167.130893 
L 209.444764 165.253724 
L 210.258026 164.229415 
L 211.071289 164.240738 
L 211.884552 165.296476 
L 212.697815 167.221501 
L 213.511078 169.780428 
L 215.137604 176.070629 
L 218.390655 189.784911 
L 220.017181 195.368309 
L 220.830444 197.487917 
L 221.643707 198.963011 
L 222.45697 199.628475 
L 223.270233 199.390083 
L 224.083496 198.282404 
L 224.896758 196.450242 
L 225.710021 194.080398 
L 227.336547 188.401668 
L 229.776336 179.487225 
L 231.402862 174.546848 
L 232.216124 172.712212 
L 233.029387 171.485601 
L 233.84265 170.990449 
L 234.655913 171.281625 
L 235.469176 172.317662 
L 236.282439 173.97696 
L 237.908965 178.5281 
L 241.162016 188.669422 
L 241.975279 190.752913 
L 242.788542 192.428054 
L 243.601805 193.57259 
L 244.415068 194.085905 
L 245.228331 193.921782 
L 246.041594 193.107684 
L 246.854857 191.737144 
L 247.668119 189.942559 
L 249.294645 185.643898 
L 250.921171 181.236044 
L 251.734434 179.270237 
L 252.547697 177.607992 
L 253.36096 176.357568 
L 254.174223 175.613693 
L 254.987485 175.436269 
L 255.800748 175.831906 
L 256.614011 176.74998 
L 257.427274 178.095295 
L 259.0538 181.587405 
L 261.493589 187.063341 
L 262.306851 188.524298 
L 263.120114 189.64009 
L 263.933377 190.33103 
L 264.74664 190.546895 
L 265.559903 190.279249 
L 266.373166 189.564781 
L 267.186429 188.477709 
L 268.812955 185.584919 
L 271.252743 181.020454 
L 272.066006 179.827752 
L 272.879269 178.939938 
L 273.692532 178.418563 
L 274.505795 178.297602 
L 275.319058 178.576507 
L 276.132321 179.219686 
L 276.945583 180.162842 
L 278.572109 182.609857 
L 280.198635 185.196571 
L 281.011898 186.324366 
L 281.825161 187.239048 
L 282.638424 187.878769 
L 283.451687 188.201091 
L 284.264949 188.18894 
L 285.078212 187.853528 
L 285.891475 187.232659 
L 287.518001 185.382247 
L 289.95779 182.220358 
L 290.771053 181.361819 
L 291.584315 180.705989 
L 292.397578 180.296561 
L 293.210841 180.15816 
L 294.024104 180.293308 
L 294.837367 180.682172 
L 295.65063 181.285395 
L 297.277156 182.910906 
L 299.716944 185.432317 
L 300.530207 186.052359 
L 301.34347 186.483754 
L 302.156733 186.699376 
L 302.969996 186.689379 
L 303.783259 186.462105 
L 304.596522 186.042846 
L 306.223047 184.794374 
L 308.662836 182.680784 
L 309.476099 182.120146 
L 310.289362 181.702155 
L 311.102625 181.453862 
L 311.915888 181.388743 
L 312.729151 181.50563 
L 313.542413 181.78912 
L 315.168939 182.735613 
L 318.421991 184.973081 
L 319.235254 185.359718 
L 320.048517 185.614263 
L 320.861779 185.721761 
L 321.675042 185.679006 
L 322.488305 185.494548 
L 324.114831 184.7859 
L 328.181145 182.589855 
L 328.994408 182.344272 
L 329.807671 182.215641 
L 330.620934 182.20973 
L 332.24746 182.5416 
L 333.873986 183.209774 
L 337.127037 184.664323 
L 338.753563 185.028717 
L 340.380089 185.003532 
L 342.006615 184.623326 
L 346.886192 182.924015 
L 348.512718 182.734064 
L 350.139243 182.862553 
L 351.765769 183.249464 
L 355.832084 184.430233 
L 357.458609 184.623325 
L 359.085135 184.556423 
L 360.711661 184.267391 
L 365.591238 183.171555 
L 367.217764 183.088429 
L 368.84429 183.213063 
L 371.284079 183.665435 
L 374.53713 184.249675 
L 376.163656 184.34266 
L 377.790182 184.264506 
L 380.22997 183.913628 
L 383.483022 183.419426 
L 385.922811 183.328655 
L 388.362599 183.529156 
L 393.242177 184.112859 
L 395.681965 184.126297 
L 398.935017 183.828797 
L 402.188068 183.520393 
L 404.627857 183.489481 
L 407.880909 183.717335 
L 411.947223 184.011692 
L 415.200275 183.957973 
L 422.519641 183.580769 
L 426.585955 183.75985 
L 430.65227 183.938601 
L 434.718584 183.847597 
L 440.411424 183.646805 
L 445.291002 183.780705 
L 450.170579 183.885808 
L 464.809311 183.809953 
L 470.502151 183.827399 
L 480.261306 183.749352 
L 488.393935 183.816205 
L 488.393935 183.816205 
" clip-path="url(#p12b9154a78)" style="fill: none; stroke: #dd8452; stroke-width: 1.75; stroke-linecap: round"/>
   </g>
   <g id="line2d_31">
    <path d="M 82.575753 177.25732 
L 83.389016 179.926591 
L 84.202279 169.772761 
L 85.015542 180.964903 
L 85.828804 174.241206 
L 86.642067 173.775916 
L 87.45533 179.825784 
L 88.268593 171.932394 
L 89.081856 178.180105 
L 89.895119 174.755971 
L 90.708382 174.886691 
L 91.521645 176.594652 
L 92.334908 174.470779 
L 93.14817 175.677372 
L 93.961433 175.466669 
L 94.774696 174.48113 
L 95.587959 175.877839 
L 96.401222 174.550962 
L 97.214485 175.095507 
L 98.027748 175.119782 
L 98.841011 174.482783 
L 99.654274 175.176434 
L 100.467536 174.568081 
L 101.280799 174.742489 
L 102.094062 174.743942 
L 102.907325 174.324082 
L 103.720588 174.798498 
L 104.533851 174.187836 
L 105.347114 174.520345 
L 106.160377 174.289526 
L 107.786902 174.252116 
L 108.600165 174.088654 
L 109.413428 174.384038 
L 110.226691 173.821477 
L 111.039954 174.346725 
L 111.853217 173.897913 
L 112.66648 173.973602 
L 113.479743 173.929182 
L 114.293006 174.004031 
L 115.106268 173.767259 
L 116.732794 173.819641 
L 117.546057 173.65585 
L 118.35932 173.877574 
L 119.172583 173.664729 
L 119.985846 173.683156 
L 120.799109 173.562286 
L 122.425634 173.653055 
L 123.238897 173.341146 
L 124.05216 173.637206 
L 124.865423 173.298019 
L 125.678686 173.55371 
L 126.491949 173.256317 
L 127.305212 173.513386 
L 128.118475 173.313462 
L 129.745 173.408778 
L 130.558263 173.077108 
L 131.371526 173.450697 
L 132.184789 173.020436 
L 132.998052 173.490086 
L 133.811315 173.018414 
L 134.624578 173.223098 
L 135.437841 173.276346 
L 136.251104 173.047807 
L 137.064366 173.27841 
L 137.877629 173.010187 
L 138.690892 173.233534 
L 139.504155 173.011451 
L 140.317418 172.996911 
L 141.130681 173.128851 
L 141.943944 172.963686 
L 142.757207 173.125655 
L 144.383732 172.98105 
L 146.823521 173.01003 
L 147.636784 172.829919 
L 148.450047 172.946708 
L 157.395939 172.769963 
L 158.209202 172.869172 
L 163.088779 172.712983 
L 164.715305 172.811309 
L 166.34183 172.696749 
L 167.968356 172.712175 
L 169.594882 172.705274 
L 171.221408 172.688546 
L 176.100985 172.660408 
L 184.233614 172.614269 
L 185.86014 172.670116 
L 189.926454 172.556622 
L 192.366243 172.630518 
L 195.619294 172.510502 
L 199.685609 172.550009 
L 202.125398 172.495316 
L 205.378449 172.555639 
L 208.631501 172.491389 
L 211.884552 172.525272 
L 215.137604 172.496078 
L 218.390655 172.501569 
L 222.45697 172.516783 
L 268.812955 172.52806 
L 395.681965 172.544694 
L 488.393935 172.544761 
L 488.393935 172.544761 
" clip-path="url(#p12b9154a78)" style="fill: none; stroke: #55a868; stroke-width: 1.75; stroke-linecap: round"/>
   </g>
   <g id="patch_3">
    <path d="M 62.284844 339.84 
L 62.284844 7.2 
" style="fill: none"/>
   </g>
   <g id="patch_4">
    <path d="M 508.684844 339.84 
L 508.684844 7.2 
" style="fill: none"/>
   </g>
   <g id="patch_5">
    <path d="M 62.284844 339.84 
L 508.684844 339.84 
" style="fill: none"/>
   </g>
   <g id="patch_6">
    <path d="M 62.284844 7.2 
L 508.684844 7.2 
" style="fill: none"/>
   </g>
   <g id="legend_1">
    <g id="line2d_32">
     <path d="M 445.493594 22.918125 
L 457.493594 22.918125 
L 469.493594 22.918125 
" style="fill: none; stroke: #4c72b0; stroke-width: 1.75; stroke-linecap: round"/>
    </g>
    <g id="text_17">
     <!-- mx -->
     <g style="fill: #262626" transform="translate(479.093594 27.118125) scale(0.12 -0.12)">
      <defs>
       <path id="DejaVuSans-6d" d="M 3328 2828 
Q 3544 3216 3844 3400 
Q 4144 3584 4550 3584 
Q 5097 3584 5394 3201 
Q 5691 2819 5691 2113 
L 5691 0 
L 5113 0 
L 5113 2094 
Q 5113 2597 4934 2840 
Q 4756 3084 4391 3084 
Q 3944 3084 3684 2787 
Q 3425 2491 3425 1978 
L 3425 0 
L 2847 0 
L 2847 2094 
Q 2847 2600 2669 2842 
Q 2491 3084 2119 3084 
Q 1678 3084 1418 2786 
Q 1159 2488 1159 1978 
L 1159 0 
L 581 0 
L 581 3500 
L 1159 3500 
L 1159 2956 
Q 1356 3278 1631 3431 
Q 1906 3584 2284 3584 
Q 2666 3584 2933 3390 
Q 3200 3197 3328 2828 
z
" transform="scale(0.015625)"/>
       <path id="DejaVuSans-78" d="M 3513 3500 
L 2247 1797 
L 3578 0 
L 2900 0 
L 1881 1375 
L 863 0 
L 184 0 
L 1544 1831 
L 300 3500 
L 978 3500 
L 1906 2253 
L 2834 3500 
L 3513 3500 
z
" transform="scale(0.015625)"/>
      </defs>
      <use xlink:href="#DejaVuSans-6d"/>
      <use xlink:href="#DejaVuSans-78" x="97.412109"/>
     </g>
    </g>
    <g id="line2d_33">
     <path d="M 445.493594 40.531875 
L 457.493594 40.531875 
L 469.493594 40.531875 
" style="fill: none; stroke: #dd8452; stroke-width: 1.75; stroke-linecap: round"/>
    </g>
    <g id="text_18">
     <!-- my -->
     <g style="fill: #262626" transform="translate(479.093594 44.731875) scale(0.12 -0.12)">
      <defs>
       <path id="DejaVuSans-79" d="M 2059 -325 
Q 1816 -950 1584 -1140 
Q 1353 -1331 966 -1331 
L 506 -1331 
L 506 -850 
L 844 -850 
Q 1081 -850 1212 -737 
Q 1344 -625 1503 -206 
L 1606 56 
L 191 3500 
L 800 3500 
L 1894 763 
L 2988 3500 
L 3597 3500 
L 2059 -325 
z
" transform="scale(0.015625)"/>
      </defs>
      <use xlink:href="#DejaVuSans-6d"/>
      <use xlink:href="#DejaVuSans-79" x="97.412109"/>
     </g>
    </g>
    <g id="line2d_34">
     <path d="M 445.493594 58.145625 
L 457.493594 58.145625 
L 469.493594 58.145625 
" style="fill: none; stroke: #55a868; stroke-width: 1.75; stroke-linecap: round"/>
    </g>
    <g id="text_19">
     <!-- mz -->
     <g style="fill: #262626" transform="translate(479.093594 62.345625) scale(0.12 -0.12)">
      <defs>
       <path id="DejaVuSans-7a" d="M 353 3500 
L 3084 3500 
L 3084 2975 
L 922 459 
L 3084 459 
L 3084 0 
L 275 0 
L 275 525 
L 2438 3041 
L 353 3041 
L 353 3500 
z
" transform="scale(0.015625)"/>
      </defs>
      <use xlink:href="#DejaVuSans-6d"/>
      <use xlink:href="#DejaVuSans-7a" x="97.412109"/>
     </g>
    </g>
   </g>
  </g>
 </g>
 <defs>
  <clipPath id="p12b9154a78">
   <rect x="62.284844" y="7.2" width="446.4" height="332.64"/>
  </clipPath>
 </defs>
</svg>
